HIERARCHY
ROOT Hips
{
	OFFSET 0.000000 103.266502 0.000000
	CHANNELS 6 Xposition Yposition Zposition Xrotation Yrotation Zrotation 
	JOINT Spine
	{
		OFFSET -0.002400 12.777504 0.315300
		CHANNELS 3 Xrotation Yrotation Zrotation
		JOINT Spine1
		{
			OFFSET -0.002067 5.816869 0.032633
			CHANNELS 3 Xrotation Yrotation Zrotation
			JOINT Spine1_split
			{
				OFFSET -0.002067 5.816869 0.032633
				CHANNELS 3 Xrotation Yrotation Zrotation
				JOINT Spine2
				{
					OFFSET -0.002067 5.816869 0.032633
					CHANNELS 3 Xrotation Yrotation Zrotation
					JOINT Neck
					{
						OFFSET -0.003700 21.199493 -0.826900
						CHANNELS 3 Xrotation Yrotation Zrotation
						JOINT Head
						{
							OFFSET 0.000000 20.442200 4.834800
							CHANNELS 3 Xrotation Yrotation Zrotation
							JOINT HeadTop_End
							{
								OFFSET 0.000000 34.668396 4.968400
								CHANNELS 3 Xrotation Yrotation Zrotation
								End Site
								{
									OFFSET 0.000000 0.000000 0.000000
								}
							}
						}
					}
					JOINT LeftShoulder
					{
						OFFSET 3.288150 8.794197 -1.372250
						CHANNELS 3 Xrotation Yrotation Zrotation
						JOINT LeftShoulder_split
						{
							OFFSET 3.288150 8.794197 -1.372250
							CHANNELS 3 Xrotation Yrotation Zrotation
							JOINT LeftArm
							{
								OFFSET 11.953299 -2.279007 -0.146200
								CHANNELS 3 Xrotation Yrotation Zrotation
								JOINT LeftForeArm
								{
									OFFSET 18.448900 0.000000 0.000000
									CHANNELS 3 Xrotation Yrotation Zrotation
									JOINT LeftHand
									{
										OFFSET 29.527798 0.000000 0.000000
										CHANNELS 3 Xrotation Yrotation Zrotation
										JOINT LeftHandThumb1
										{
											OFFSET 10.739754 -2.369614 9.225399
											CHANNELS 3 Xrotation Yrotation Zrotation
											JOINT LeftHandThumb2
											{
												OFFSET 4.926170 -2.844131 2.844125
												CHANNELS 3 Xrotation Yrotation Zrotation
												JOINT LeftHandThumb3
												{
													OFFSET 4.614891 -2.664413 2.664409
													CHANNELS 3 Xrotation Yrotation Zrotation
													JOINT LeftHandThumb4
													{
														OFFSET 4.432465 -2.559082 2.559083
														CHANNELS 3 Xrotation Yrotation Zrotation
														End Site
														{
															OFFSET 0.000000 0.000000 0.000000
														}
													}
												}
											}
										}
										JOINT LeftHandIndex1
										{
											OFFSET 26.467674 0.187653 6.405298
											CHANNELS 3 Xrotation Yrotation Zrotation
											JOINT LeftHandIndex2
											{
												OFFSET 8.792900 0.000000 0.000000
												CHANNELS 3 Xrotation Yrotation Zrotation
												JOINT LeftHandIndex3
												{
													OFFSET 10.075203 0.000000 0.000000
													CHANNELS 3 Xrotation Yrotation Zrotation
													End Site
													{
														OFFSET 0.000000 0.000000 0.000000
													}
												}
											}
										}
										JOINT LeftHandMiddle1
										{
											OFFSET 25.764404 0.000000 0.000000
											CHANNELS 3 Xrotation Yrotation Zrotation
											JOINT LeftHandMiddle2
											{
												OFFSET 9.393974 0.000000 0.000000
												CHANNELS 3 Xrotation Yrotation Zrotation
												JOINT LeftHandMiddle3
												{
													OFFSET 10.771950 0.000000 0.000000
													CHANNELS 3 Xrotation Yrotation Zrotation
													End Site
													{
														OFFSET 0.000000 0.000000 0.000000
													}
												}
											}
										}
										JOINT LeftHandRing1
										{
											OFFSET 24.660927 0.144547 -6.225808
											CHANNELS 3 Xrotation Yrotation Zrotation
											JOINT LeftHandRing2
											{
												OFFSET 9.393799 0.000000 0.000000
												CHANNELS 3 Xrotation Yrotation Zrotation
												JOINT LeftHandRing3
												{
													OFFSET 9.928497 0.000000 0.000000
													CHANNELS 3 Xrotation Yrotation Zrotation
													End Site
													{
														OFFSET 0.000000 0.000000 0.000000
													}
												}
											}
										}
										JOINT LeftHandPinky1
										{
											OFFSET 23.655350 0.125290 -12.815412
											CHANNELS 3 Xrotation Yrotation Zrotation
											JOINT LeftHandPinky2
											{
												OFFSET 8.425102 0.000000 0.000000
												CHANNELS 3 Xrotation Yrotation Zrotation
												JOINT LeftHandPinky3
												{
													OFFSET 8.147003 0.000000 0.000000
													CHANNELS 3 Xrotation Yrotation Zrotation
													End Site
													{
														OFFSET 0.000000 0.000000 0.000000
													}
												}
											}
										}
									}
								}
							}
						}
					}
					JOINT RightShoulder
					{
						OFFSET -3.249400 8.794197 -1.372250
						CHANNELS 3 Xrotation Yrotation Zrotation
						JOINT RightShoulder_split
						{
							OFFSET -3.249400 8.794197 -1.372250
							CHANNELS 3 Xrotation Yrotation Zrotation
							JOINT RightArm
							{
								OFFSET -11.953299 -2.279007 -0.146200
								CHANNELS 3 Xrotation Yrotation Zrotation
								JOINT RightForeArm
								{
									OFFSET -18.448900 0.000000 0.000000
									CHANNELS 3 Xrotation Yrotation Zrotation
									JOINT RightHand
									{
										OFFSET -29.527802 0.000000 0.000000
										CHANNELS 3 Xrotation Yrotation Zrotation
										JOINT RightHandThumb1
										{
											OFFSET -10.739754 -2.369614 9.225399
											CHANNELS 3 Xrotation Yrotation Zrotation
											JOINT RightHandThumb2
											{
												OFFSET -4.926170 -2.844131 2.844125
												CHANNELS 3 Xrotation Yrotation Zrotation
												JOINT RightHandThumb3
												{
													OFFSET -4.614891 -2.664413 2.664409
													CHANNELS 3 Xrotation Yrotation Zrotation
													JOINT RightHandThumb4
													{
														OFFSET -4.432465 -2.559082 2.559083
														CHANNELS 3 Xrotation Yrotation Zrotation
														End Site
														{
															OFFSET 0.000000 0.000000 0.000000
														}
													}
												}
											}
										}
										JOINT RightHandIndex1
										{
											OFFSET -26.467674 0.187653 6.405298
											CHANNELS 3 Xrotation Yrotation Zrotation
											JOINT RightHandIndex2
											{
												OFFSET -8.792900 0.000000 0.000000
												CHANNELS 3 Xrotation Yrotation Zrotation
												JOINT RightHandIndex3
												{
													OFFSET -10.075203 0.000000 0.000000
													CHANNELS 3 Xrotation Yrotation Zrotation
													End Site
													{
														OFFSET 0.000000 0.000000 0.000000
													}
												}
											}
										}
										JOINT RightHandMiddle1
										{
											OFFSET -25.764404 0.000000 0.000000
											CHANNELS 3 Xrotation Yrotation Zrotation
											JOINT RightHandMiddle2
											{
												OFFSET -9.393974 0.000000 0.000000
												CHANNELS 3 Xrotation Yrotation Zrotation
												JOINT RightHandMiddle3
												{
													OFFSET -10.771950 0.000000 0.000000
													CHANNELS 3 Xrotation Yrotation Zrotation
													End Site
													{
														OFFSET 0.000000 0.000000 0.000000
													}
												}
											}
										}
										JOINT RightHandRing1
										{
											OFFSET -24.660927 0.144547 -6.225808
											CHANNELS 3 Xrotation Yrotation Zrotation
											JOINT RightHandRing2
											{
												OFFSET -9.393799 0.000000 0.000000
												CHANNELS 3 Xrotation Yrotation Zrotation
												JOINT RightHandRing3
												{
													OFFSET -9.928497 0.000000 0.000000
													CHANNELS 3 Xrotation Yrotation Zrotation
													End Site
													{
														OFFSET 0.000000 0.000000 0.000000
													}
												}
											}
										}
										JOINT RightHandPinky1
										{
											OFFSET -23.655350 0.125290 -12.815412
											CHANNELS 3 Xrotation Yrotation Zrotation
											JOINT RightHandPinky2
											{
												OFFSET -8.425102 0.000000 0.000000
												CHANNELS 3 Xrotation Yrotation Zrotation
												JOINT RightHandPinky3
												{
													OFFSET -8.147003 0.000000 0.000000
													CHANNELS 3 Xrotation Yrotation Zrotation
													End Site
													{
														OFFSET 0.000000 0.000000 0.000000
													}
												}
											}
										}
									}
								}
							}
						}
					}
				}
			}
		}
	}
	JOINT LeftUpLeg
	{
		OFFSET 11.394100 -6.187798 -0.413800
		CHANNELS 3 Xrotation Yrotation Zrotation
		JOINT LeftLeg
		{
			OFFSET 0.430247 -32.302673 3.732800
			CHANNELS 3 Xrotation Yrotation Zrotation
			JOINT LeftFoot
			{
				OFFSET -0.430247 -48.264931 -6.423300
				CHANNELS 3 Xrotation Yrotation Zrotation
				JOINT LeftToeBase
				{
					OFFSET 4.230900 -16.068199 23.438400
					CHANNELS 3 Xrotation Yrotation Zrotation
					JOINT LeftToe_End
					{
						OFFSET 4.510700 0.695400 19.974600
						CHANNELS 3 Xrotation Yrotation Zrotation
						End Site
						{
							OFFSET 0.000000 0.000000 0.000000
						}
					}
				}
			}
		}
	}
	JOINT RightUpLeg
	{
		OFFSET -11.333700 -6.187798 -0.413800
		CHANNELS 3 Xrotation Yrotation Zrotation
		JOINT RightLeg
		{
			OFFSET -0.430392 -32.302628 3.733000
			CHANNELS 3 Xrotation Yrotation Zrotation
			JOINT RightFoot
			{
				OFFSET 0.430392 -48.264973 -6.423500
				CHANNELS 3 Xrotation Yrotation Zrotation
				JOINT RightToeBase
				{
					OFFSET -4.230900 -16.068199 23.438400
					CHANNELS 3 Xrotation Yrotation Zrotation
					JOINT RightToe_End
					{
						OFFSET -4.510700 0.695400 19.974600
						CHANNELS 3 Xrotation Yrotation Zrotation
						End Site
						{
							OFFSET 0.000000 0.000000 0.000000
						}
					}
				}
			}
		}
	}
}
MOTION
Frames: 6
Frame Time: 0.016667
-0.249802 12.225204 -1.932808 -87.563162 -3.597642 -0.670540 0.633053 1.559255 -1.406191 -2.712456 0.550123 0.069934 0.000000 0.000000 0.000000 -2.710000 0.572753 0.085568 3.954694 -0.162520 0.200794 7.663471 -2.706719 7.904901 0.000001 0.000000 -0.000000 1.279315 -13.498955 -1.883383 0.000000 0.000000 0.000000 20.483971 -1.014542 -70.993464 0.000016 -137.491489 0.000011 -17.619165 18.840496 -43.362808 -7.220044 -16.942344 15.004580 7.558173 31.509551 -3.040784 -10.327320 16.515338 14.878083 -0.000000 0.000002 0.000002 -0.024116 4.029260 2.883326 0.551244 2.482839 -25.032242 -0.000001 0.000000 0.000000 -0.237389 3.164806 12.085514 0.825494 3.000283 -30.761099 -0.000000 0.000000 -0.000000 -0.227151 2.636216 15.396435 0.647040 2.678215 -27.159663 0.000000 0.000000 0.000000 -1.716318 2.384076 10.103020 0.425830 2.194582 -21.959564 0.000000 0.000000 -0.000000 0.515806 6.973514 0.064738 0.000000 0.000000 0.000000 15.875318 6.901680 66.846508 0.000005 133.088012 0.000001 -16.503241 -12.599711 49.917399 -19.372322 9.812730 -17.628155 16.805756 -33.149118 6.482050 3.930032 -4.675017 -18.270496 -0.000001 -0.000000 -0.000003 -0.578704 -1.290234 19.415301 -0.000002 -0.000001 0.000021 -0.000000 0.000000 0.000000 0.900195 -7.884223 9.062696 0.294482 -1.631367 20.463682 -0.000000 -0.000001 -0.000000 0.740067 -10.091158 4.911396 1.354387 -3.285246 44.799966 -0.000001 0.000003 0.000001 0.507051 -5.672359 8.465991 1.111095 -3.020974 40.379057 -0.000001 0.000000 0.000002 -26.246291 15.285369 -5.115428 24.587725 -6.844627 -9.385653 3.252636 8.557567 5.600256 -0.279198 -0.000005 0.000005 0.000000 -0.000000 -0.000001 -6.323367 -10.326947 -0.641514 0.831859 -4.631107 5.346704 13.211580 -4.173661 29.154003 -1.652979 0.000002 0.000004 0.000000 0.000002 0.000001 
-0.249517 12.223587 -1.932014 -87.567547 -3.598431 -0.671490 0.639868 1.568428 -1.402133 -2.713546 0.552116 0.068063 0.000000 0.000000 0.000000 -2.711030 0.574704 0.083783 3.956763 -0.164480 0.200224 7.651823 -2.723800 7.913647 0.000000 0.000000 -0.000000 1.279887 -13.506579 -1.882615 0.000000 0.000000 0.000000 20.471329 -1.017555 -70.987140 -0.000000 -137.488211 -0.000010 -17.622334 18.842192 -43.369536 -7.219505 -16.942872 15.007534 7.558170 31.509551 -3.040784 -10.327319 16.515336 14.878083 0.000001 -0.000001 0.000002 -0.024114 4.029260 2.883324 0.551028 2.482374 -25.027246 -0.000000 -0.000000 0.000000 -0.237389 3.164807 12.085506 0.825491 3.000281 -30.761085 -0.000000 0.000000 -0.000000 -0.227158 2.636216 15.396437 0.646791 2.677724 -27.154279 0.000000 -0.000000 -0.000000 -1.716321 2.384076 10.103025 0.425639 2.194105 -21.954531 0.000000 0.000000 -0.000000 0.515554 6.970729 0.064773 0.000000 0.000000 0.000000 15.874022 6.887372 66.861166 0.000003 133.090416 -0.000010 -16.498011 -12.596068 49.928259 -19.372324 9.812730 -17.628155 16.805759 -33.149118 6.482047 3.930031 -4.675014 -18.270495 0.000003 0.000000 -0.000000 -0.578704 -1.290234 19.415303 -0.000002 -0.000001 0.000020 0.000000 -0.000000 0.000000 0.900197 -7.884225 9.062698 0.294485 -1.631368 20.463684 0.000002 -0.000000 -0.000002 0.740069 -10.091161 4.911394 1.354385 -3.285246 44.799966 -0.000002 0.000002 -0.000001 0.507050 -5.672359 8.465992 1.111095 -3.020974 40.379061 0.000001 0.000001 0.000002 -26.244636 15.284399 -5.113975 24.589617 -6.844509 -9.385968 3.257866 8.551801 5.590142 -0.292434 -0.000007 0.000003 0.000000 0.000001 -0.000001 -6.323226 -10.328923 -0.641477 0.837872 -4.640939 5.344966 13.213554 -4.177227 29.149967 -1.649964 -0.000009 0.000024 0.000000 0.000000 0.000001 
-0.248976 12.222260 -1.930969 -87.567779 -3.597727 -0.673344 0.642324 1.574566 -1.396687 -2.714827 0.553227 0.066521 0.000000 0.000000 0.000000 -2.712320 0.575769 0.082299 3.958957 -0.166341 0.200116 7.643629 -2.740681 7.924391 -0.000000 -0.000000 -0.000000 1.280315 -13.511006 -1.881053 0.000000 0.000000 0.000000 20.463067 -1.020419 -70.982468 0.000019 -137.485096 0.000005 -17.625464 18.842376 -43.375499 -7.217989 -16.944366 15.015875 7.558172 31.509555 -3.040780 -10.327323 16.515339 14.878078 0.000002 0.000000 0.000000 -0.024116 4.029259 2.883317 0.550414 2.481058 -25.013025 -0.000000 0.000000 0.000000 -0.237389 3.164807 12.085507 0.825493 3.000282 -30.761075 0.000000 -0.000000 -0.000000 -0.227154 2.636218 15.396430 0.646075 2.676332 -27.138969 -0.000000 -0.000000 0.000000 -1.716319 2.384075 10.103024 0.425093 2.192753 -21.940273 0.000000 0.000000 0.000000 0.515697 6.970290 0.064803 0.000000 0.000000 0.000000 15.871034 6.874127 66.875256 0.000065 133.093722 -0.000054 -16.491423 -12.597527 49.941749 -19.372324 9.812731 -17.628153 16.805757 -33.149118 6.482052 3.930032 -4.675016 -18.270498 -0.000001 -0.000003 -0.000000 -0.578707 -1.290234 19.415303 -0.000001 -0.000001 0.000020 -0.000001 0.000000 -0.000000 0.900194 -7.884224 9.062696 0.294482 -1.631367 20.463680 0.000000 -0.000001 -0.000000 0.740066 -10.091159 4.911396 1.354386 -3.285245 44.799966 -0.000001 -0.000000 -0.000000 0.507050 -5.672359 8.465993 1.111095 -3.020974 40.379054 -0.000000 0.000001 -0.000001 -26.248200 15.284394 -5.111093 24.592818 -6.845847 -9.386966 3.262964 8.549978 5.583892 -0.292845 -0.000001 0.000000 -0.000000 -0.000001 -0.000002 -6.325510 -10.331114 -0.640994 0.840034 -4.641210 5.344192 13.214779 -4.180772 29.146275 -1.646719 -0.000020 0.000001 0.000000 0.000000 0.000001 
-0.248432 12.221092 -1.929688 -87.565627 -3.595158 -0.675169 0.642376 1.578123 -1.390918 -2.716201 0.553642 0.065173 0.000000 0.000000 0.000000 -2.713718 0.576141 0.080982 3.961085 -0.168043 0.200409 7.637743 -2.756497 7.936150 0.000000 -0.000000 0.000000 1.280694 -13.512919 -1.878508 0.000000 0.000000 0.000000 20.458085 -1.023374 -70.979401 0.000015 -137.481763 0.000010 -17.628580 18.841794 -43.381267 -7.215853 -16.946469 15.027603 7.558173 31.509555 -3.040786 -10.327320 16.515338 14.878085 0.000000 0.000000 -0.000002 -0.024117 4.029260 2.883328 0.549552 2.479206 -24.993085 -0.000000 0.000000 0.000001 -0.237391 3.164804 12.085521 0.825492 3.000282 -30.761089 0.000000 -0.000000 -0.000000 -0.227157 2.636215 15.396437 0.645073 2.674380 -27.117497 0.000000 0.000000 0.000000 -1.716320 2.384076 10.103025 0.424327 2.190853 -21.920268 0.000000 -0.000000 0.000000 0.516042 6.971514 0.064825 0.000000 0.000000 0.000000 15.867204 6.862425 66.888869 0.000005 133.097151 -0.000008 -16.483941 -12.601879 49.956441 -19.372326 9.812731 -17.628151 16.805756 -33.149118 6.482054 3.930030 -4.675014 -18.270496 -0.000001 -0.000001 -0.000003 -0.578706 -1.290234 19.415304 -0.000001 -0.000001 0.000020 -0.000000 -0.000000 -0.000000 0.900193 -7.884223 9.062700 0.294486 -1.631368 20.463686 -0.000000 -0.000001 -0.000000 0.740065 -10.091160 4.911395 1.354385 -3.285246 44.799972 -0.000000 0.000003 0.000000 0.507050 -5.672360 8.465993 1.111093 -3.020974 40.379054 0.000001 0.000002 0.000003 -26.254346 15.285314 -5.108867 24.597140 -6.846502 -9.387150 3.267168 8.550348 5.582846 -0.288146 0.000002 -0.000001 -0.000000 0.000001 0.000001 -6.329048 -10.333416 -0.640235 0.839937 -4.635876 5.343993 13.215555 -4.184267 29.142535 -1.643299 0.000006 -0.000018 0.000001 0.000000 0.000002 
-0.248194 12.220024 -1.928322 -87.562417 -3.590767 -0.676098 0.640293 1.578320 -1.385493 -2.717586 0.553202 0.064003 0.000000 0.000000 0.000000 -2.715124 0.575667 0.079816 3.962984 -0.169444 0.201217 7.634356 -2.769836 7.948578 -0.000000 -0.000000 0.000001 1.280978 -13.511726 -1.874326 0.000000 0.000000 0.000000 20.456942 -1.026666 -70.978800 0.000003 -137.477774 -0.000010 -17.631645 18.840631 -43.387015 -7.213005 -16.949265 15.043273 7.558173 31.509555 -3.040780 -10.327319 16.515336 14.878082 -0.000001 0.000000 0.000000 -0.024117 4.029260 2.883326 0.548399 2.476736 -24.966416 -0.000000 -0.000000 0.000000 -0.237391 3.164805 12.085527 0.825494 3.000282 -30.761082 -0.000000 -0.000000 -0.000000 -0.227158 2.636215 15.396447 0.643734 2.671766 -27.088774 -0.000000 -0.000000 0.000000 -1.716319 2.384075 10.103035 0.423304 2.188312 -21.893499 0.000000 -0.000000 0.000000 0.516562 6.974771 0.064836 0.000000 0.000000 0.000000 15.862887 6.852995 66.901908 0.000045 133.100142 -0.000042 -16.475526 -12.608680 49.971754 -19.372326 9.812730 -17.628150 16.805756 -33.149118 6.482052 3.930032 -4.675010 -18.270496 0.000000 -0.000003 -0.000001 -0.578709 -1.290234 19.415303 -0.000002 -0.000001 0.000020 -0.000000 -0.000000 -0.000000 0.900194 -7.884223 9.062699 0.294483 -1.631368 20.463687 -0.000001 -0.000001 -0.000001 0.740066 -10.091161 4.911397 1.354384 -3.285246 44.799966 -0.000000 -0.000001 0.000004 0.507050 -5.672359 8.465993 1.111094 -3.020974 40.379061 -0.000001 0.000001 0.000002 -26.261159 15.286740 -5.107567 24.601764 -6.846406 -9.387384 3.270541 8.550921 5.584794 -0.283587 0.000015 -0.000003 0.000000 0.000000 -0.000001 -6.333006 -10.335775 -0.639460 0.838869 -4.628328 5.344012 13.215983 -4.187681 29.138782 -1.639701 0.000014 -0.000010 0.000001 0.000001 0.000001 
-0.248471 12.218948 -1.927116 -87.560075 -3.586123 -0.675860 0.637105 1.575027 -1.381079 -2.718919 0.551919 0.062977 0.000000 0.000000 0.000000 -2.716475 0.574361 0.078761 3.964422 -0.170399 0.202552 7.633140 -2.779106 7.960847 0.000000 0.000000 -0.000000 1.281226 -13.507489 -1.867825 0.000000 0.000000 0.000000 20.459587 -1.030545 -70.981477 0.000022 -137.472583 0.000006 -17.634404 18.839287 -43.393083 -7.209396 -16.952830 15.063105 7.558170 31.509551 -3.040780 -10.327319 16.515336 14.878080 -0.000002 0.000002 0.000002 -0.024117 4.029262 2.883321 0.546941 2.473604 -24.932668 -0.000000 0.000000 -0.000000 -0.237391 3.164808 12.085509 0.825491 3.000280 -30.761089 -0.000000 -0.000000 -0.000000 -0.227157 2.636217 15.396438 0.642039 2.668457 -27.052428 0.000000 -0.000000 0.000000 -1.716320 2.384078 10.103024 0.422012 2.185092 -21.859607 0.000000 -0.000000 -0.000000 0.517105 6.980268 0.064835 0.000000 0.000000 0.000000 15.858782 6.846166 66.914325 0.000021 133.102068 -0.000021 -16.466428 -12.616754 49.986842 -19.372324 9.812730 -17.628156 16.805759 -33.149118 6.482052 3.930032 -4.675017 -18.270503 0.000000 -0.000001 -0.000001 -0.578708 -1.290234 19.415303 -0.000002 -0.000001 0.000020 -0.000001 -0.000001 0.000000 0.900194 -7.884223 9.062699 0.294486 -1.631369 20.463686 0.000001 0.000000 -0.000000 0.740065 -10.091161 4.911397 1.354385 -3.285246 44.799966 -0.000002 -0.000001 0.000003 0.507049 -5.672359 8.465992 1.111095 -3.020975 40.379061 -0.000000 -0.000003 0.000003 -26.265994 15.288082 -5.107655 24.605396 -6.845976 -9.387452 3.272603 8.552030 5.588182 -0.278091 -0.000001 -0.000001 -0.000000 -0.000000 -0.000001 -6.336165 -10.338117 -0.638730 0.838225 -4.622875 5.343774 13.216635 -4.190942 29.134923 -1.635951 0.000007 -0.000016 0.000001 -0.000002 0.000001 
